<?xml version="1.0" standalone="no"?>
<!DOCTYPE svg PUBLIC "-//W3C//DTD SVG 20010904//EN"
 "http://www.w3.org/TR/2001/REC-SVG-20010904/DTD/svg10.dtd">
<svg version="1.0" xmlns="http://www.w3.org/2000/svg"
 width="3000.000000pt" height="2000.000000pt" viewBox="0 0 3000.000000 2000.000000"
 preserveAspectRatio="xMidYMid meet">

<g transform="translate(0.000000,2000.000000) scale(0.100000,-0.100000)"
fill="#000000" stroke="none">
<path d="M8452 11189 c-439 -86 -801 -365 -992 -764 -135 -282 -169 -595 -98
-895 93 -390 377 -743 744 -922 202 -99 383 -141 619 -141 186 0 295 16 450
68 288 97 550 302 727 570 33 49 68 109 79 132 47 105 58 132 77 193 105 335
73 728 -84 1027 -210 399 -569 661 -1014 737 -126 22 -385 20 -508 -5z m-118
-514 c25 -24 26 -27 26 -148 0 -121 -1 -125 -26 -151 -47 -47 -119 -27 -145
41 -13 34 -11 200 2 226 30 59 97 74 143 32z m900 -1 c25 -26 26 -30 26 -149
0 -119 -1 -123 -26 -149 -54 -53 -135 -22 -150 58 -3 20 -4 78 -2 128 4 84 6
93 32 114 37 33 86 32 120 -2z m-1094 -211 c0 -52 5 -74 21 -98 45 -65 112
-81 178 -44 51 29 64 53 69 137 l5 72 311 -2 311 -3 5 -71 c6 -79 24 -114 71
-138 43 -21 87 -20 127 4 51 31 72 75 72 149 l0 64 61 -6 c72 -6 120 -38 159
-108 l25 -44 0 -570 c0 -528 -1 -574 -18 -617 -22 -58 -98 -129 -155 -146 -28
-9 -210 -12 -660 -12 l-621 0 -53 23 c-29 13 -68 40 -86 61 -64 73 -62 50 -62
691 l0 583 33 48 c38 58 101 94 164 94 l43 0 0 -67z"/>
<path d="M8050 9716 c0 -460 0 -463 22 -491 43 -55 39 -55 655 -54 413 0 577
3 603 12 20 7 44 27 57 46 l23 34 -2 456 -3 456 -677 3 -678 2 0 -464z m536
272 l83 -83 -7 -65 -7 -65 -45 -3 c-25 -1 -54 -7 -66 -13 -18 -9 -30 -1 -100
71 -43 45 -83 88 -87 96 -17 31 15 86 73 127 45 32 67 23 156 -65z m477 32
c64 -64 61 -77 -48 -188 -67 -68 -87 -84 -97 -74 -6 6 -36 12 -65 12 l-53 0 0
48 c0 26 -3 57 -6 69 -5 17 10 38 75 102 101 102 120 105 194 31z m-309 -176
c3 -9 6 -38 6 -65 l0 -49 53 0 c55 0 77 -12 77 -42 0 -24 -30 -38 -84 -38
l-46 0 0 -59 c0 -42 -5 -62 -16 -72 -26 -21 -54 21 -54 82 l0 49 -46 0 c-54 0
-84 14 -84 39 0 23 34 40 90 43 l45 3 -3 42 c-2 23 2 51 8 62 13 25 45 28 54
5z m-208 -223 c5 -6 32 -11 59 -13 l50 -3 6 -70 6 -70 -78 -77 c-68 -68 -83
-78 -114 -78 -28 0 -44 8 -76 39 -21 22 -42 53 -45 70 -6 29 1 38 82 121 48
50 90 90 94 90 3 0 10 -4 16 -9z m476 -78 c100 -102 104 -117 43 -182 -40 -43
-53 -51 -84 -51 -32 0 -45 9 -113 78 l-76 77 5 72 6 72 51 4 c28 2 60 4 71 5
14 1 46 -24 97 -75z"/>
<path d="M12430 10540 c-274 -43 -449 -283 -400 -550 32 -177 165 -318 343
-366 61 -16 212 -18 276 -3 67 15 143 55 196 101 l48 42 -68 63 -68 62 -36
-31 c-115 -101 -294 -97 -403 9 -98 96 -111 274 -27 387 96 132 299 154 420
47 l43 -38 68 60 68 61 -33 34 c-90 95 -272 146 -427 122z"/>
<path d="M10718 10338 c76 -106 147 -207 159 -224 l22 -31 -164 -227 c-91
-124 -165 -228 -165 -231 0 -3 53 -5 118 -5 l117 1 104 154 c58 85 107 155
111 155 3 0 54 -70 114 -155 l107 -155 120 0 120 0 -23 33 c-12 17 -87 121
-165 230 -79 109 -143 203 -143 208 0 6 70 107 155 225 l154 214 -113 0 -113
0 -99 -145 c-54 -79 -102 -144 -105 -145 -3 0 -52 65 -108 145 l-102 145 -119
0 -120 0 138 -192z"/>
<path d="M13165 10315 c-61 -13 -151 -50 -160 -66 -4 -6 46 -121 60 -137 1 -1
26 9 54 24 68 33 179 44 233 21 40 -17 78 -67 78 -103 0 -21 -5 -22 -142 -26
-152 -4 -212 -20 -265 -70 -59 -55 -68 -174 -20 -247 73 -110 307 -134 406
-42 l31 29 0 -39 0 -39 95 0 95 0 0 233 c0 182 -3 245 -16 286 -17 57 -69 123
-118 148 -82 43 -214 54 -331 28z m265 -444 c0 -72 -61 -121 -153 -121 -73 0
-107 26 -107 80 0 30 6 43 26 59 23 18 41 21 130 21 l104 0 0 -39z"/>
<path d="M14157 10319 c-50 -12 -87 -31 -120 -64 l-27 -28 0 47 0 46 -95 0
-95 0 0 -350 0 -350 100 0 100 0 0 195 c0 143 4 204 14 228 26 63 102 107 184
107 l32 0 0 90 0 90 -27 -1 c-16 -1 -45 -5 -66 -10z"/>
<path d="M14579 10316 c-106 -28 -202 -114 -239 -212 -14 -38 -20 -79 -20
-134 0 -98 25 -170 81 -234 125 -142 420 -168 560 -48 l39 34 -51 58 -51 58
-35 -24 c-113 -76 -274 -48 -329 58 -8 15 -14 29 -14 33 0 3 119 5 265 5 l265
0 0 68 c-2 242 -226 404 -471 338z m187 -155 c44 -20 78 -60 89 -104 l7 -27
-171 0 c-160 0 -171 1 -171 19 0 32 44 85 90 109 54 27 101 28 156 3z"/>
<path d="M11530 9990 l0 -80 185 0 186 0 -3 78 -3 77 -182 3 -183 2 0 -80z"/>
<path d="M11380 9240 l0 -150 30 0 30 0 0 68 c0 74 16 102 56 102 35 0 44 -21
44 -97 l0 -73 30 0 30 0 0 84 c0 106 -15 130 -81 130 -24 0 -52 -3 -61 -8 -16
-7 -18 -2 -18 43 0 50 -1 51 -30 51 l-30 0 0 -150z"/>
<path d="M11660 9240 l0 -150 30 0 c17 0 30 5 30 10 0 7 6 7 19 0 32 -16 86
-12 114 10 50 40 54 133 6 176 -22 20 -89 25 -121 10 -16 -7 -18 -2 -18 43 0
50 -1 51 -30 51 l-30 0 0 -150z m168 -12 c11 -23 11 -33 0 -55 -25 -54 -108
-34 -108 25 0 63 82 85 108 30z"/>
<path d="M12790 9339 c0 -45 -2 -50 -17 -43 -33 15 -100 10 -122 -10 -50 -46
-47 -134 6 -176 28 -22 82 -26 114 -10 13 7 19 7 19 0 0 -5 14 -10 30 -10 l30
0 0 150 0 150 -30 0 c-29 0 -30 -1 -30 -51z m-18 -96 c39 -35 11 -103 -43
-103 -29 0 -59 31 -59 60 0 50 64 78 102 43z"/>
<path d="M14110 9240 l0 -150 30 0 30 0 0 150 0 150 -30 0 -30 0 0 -150z"/>
<path d="M10580 9230 l0 -140 73 0 c97 0 139 13 176 56 25 28 31 43 31 82 0
59 -29 108 -75 128 -21 8 -68 14 -120 14 l-85 0 0 -140z m195 65 c33 -32 33
-84 2 -121 -19 -22 -34 -28 -80 -32 l-57 -4 0 91 0 91 55 0 c46 0 60 -4 80
-25z"/>
<path d="M13030 9231 l0 -141 30 0 c28 0 30 2 30 40 l0 40 45 0 c55 0 110 21
124 48 19 36 13 89 -13 119 -23 26 -29 28 -120 31 l-96 4 0 -141z m168 77 c17
-17 15 -54 -4 -72 -9 -10 -33 -16 -60 -16 l-44 0 0 50 0 50 48 0 c26 0 53 -5
60 -12z"/>
<path d="M10938 9298 c-16 -5 -28 -13 -28 -16 1 -21 21 -28 70 -28 42 1 55 -3
58 -15 2 -13 -9 -17 -49 -22 -58 -7 -89 -29 -89 -64 0 -51 69 -80 123 -52 16
9 22 9 25 0 2 -6 15 -11 28 -11 23 0 24 2 24 79 0 44 -3 87 -6 96 -15 38 -96
56 -156 33z m102 -137 c0 -28 -60 -45 -75 -21 -14 22 4 40 40 40 28 0 35 -4
35 -19z"/>
<path d="M11200 9303 c-30 -11 -50 -37 -50 -63 0 -36 15 -47 78 -61 33 -6 52
-16 52 -25 0 -20 -44 -28 -81 -15 -34 12 -49 8 -49 -15 0 -41 139 -44 172 -4
23 28 23 42 0 70 -11 13 -33 23 -59 27 -56 7 -74 28 -40 44 19 8 34 9 56 1 27
-9 32 -8 41 9 9 16 7 21 -15 29 -28 11 -80 12 -105 3z"/>
<path d="M11994 9301 c-65 -28 -84 -118 -36 -171 70 -79 202 -35 202 66 0 62
-39 104 -100 110 -25 2 -55 0 -66 -5z m90 -57 c19 -18 21 -75 4 -92 -17 -17
-64 -15 -82 4 -36 35 -10 104 39 104 13 0 31 -7 39 -16z"/>
<path d="M12228 9299 c-23 -9 -26 -14 -18 -28 7 -15 18 -17 59 -13 41 4 51 1
60 -15 10 -19 6 -21 -47 -26 -42 -4 -62 -12 -74 -28 -24 -29 -23 -45 7 -74 26
-27 72 -33 106 -15 13 7 19 7 19 0 0 -5 14 -10 31 -10 l32 0 -6 86 c-4 69 -9
91 -25 107 -24 23 -102 32 -144 16z m112 -125 c0 -22 -24 -44 -50 -44 -32 0
-45 13 -36 35 5 14 86 23 86 9z"/>
<path d="M12460 9200 l0 -110 30 0 29 0 3 73 c3 70 4 72 35 87 22 10 33 22 33
38 0 26 -14 28 -52 8 -24 -13 -28 -13 -28 0 0 8 -10 14 -25 14 l-25 0 0 -110z"/>
<path d="M13342 9300 c-15 -6 -22 -17 -20 -27 3 -15 12 -17 51 -15 45 4 77 -9
77 -29 0 -5 -16 -9 -35 -9 -20 0 -51 -7 -70 -14 -31 -13 -35 -20 -35 -50 0
-55 65 -85 121 -56 13 7 19 7 19 0 0 -5 14 -10 31 -10 l31 0 -3 85 c-3 70 -8
88 -26 106 -24 25 -103 35 -141 19z m108 -133 c0 -21 -22 -37 -51 -37 -26 0
-45 22 -33 41 9 15 84 11 84 -4z"/>
<path d="M13570 9200 l0 -110 30 0 30 0 0 69 c0 74 14 101 50 101 36 0 50 -27
50 -101 l0 -69 30 0 30 0 0 75 c0 41 -5 85 -11 98 -19 41 -78 59 -121 36 -14
-8 -23 -8 -31 0 -6 6 -21 11 -34 11 -23 0 -23 -2 -23 -110z"/>
<path d="M13904 9300 c-66 -27 -84 -117 -35 -172 27 -30 34 -33 89 -33 65 0
100 18 81 41 -7 9 -25 11 -60 7 -47 -6 -79 6 -79 28 0 5 36 9 80 9 l80 0 0 33
c-1 71 -82 117 -156 87z m89 -52 l22 -23 -54 -3 c-64 -4 -74 3 -42 29 30 25
46 24 74 -3z"/>
</g>
</svg>
