<?xml version="1.0" standalone="no"?>
<!DOCTYPE svg PUBLIC "-//W3C//DTD SVG 20010904//EN"
 "http://www.w3.org/TR/2001/REC-SVG-20010904/DTD/svg10.dtd">
<svg version="1.0" xmlns="http://www.w3.org/2000/svg"
 width="200.000000pt" height="200.000000pt" viewBox="0 0 200.000000 200.000000"
 preserveAspectRatio="xMidYMid meet">

<g transform="translate(0.000000,200.000000) scale(0.100000,-0.100000)"
fill="#2424D4" stroke="none">
<path d="M851 1739 c-428 -84 -700 -507 -595 -924 51 -200 208 -391 399 -486
127 -62 224 -82 375 -77 101 4 141 10 205 32 120 41 208 97 305 195 98 100
140 165 183 288 29 82 31 97 32 228 0 119 -4 151 -23 215 -84 271 -300 466
-581 526 -72 15 -230 17 -300 3z m-67 -285 c19 -18 22 -124 6 -155 -14 -26
-55 -24 -74 3 -10 13 -16 43 -16 73 0 80 43 120 84 79z m487 6 c16 -9 19 -22
19 -83 0 -78 -9 -97 -46 -97 -33 0 -54 37 -54 95 0 78 32 111 81 85z m-589
-126 c8 -119 148 -104 148 16 l0 30 170 0 170 0 0 -44 c0 -36 5 -48 26 -65 56
-44 113 -15 121 62 6 52 13 55 68 33 63 -27 65 -39 65 -391 0 -349 -1 -358
-63 -395 -30 -19 -53 -20 -385 -20 -383 0 -387 1 -431 56 -20 26 -21 37 -21
356 0 214 4 336 11 349 13 26 68 59 96 59 19 0 22 -6 25 -46z"/>
<path d="M630 932 c0 -238 1 -260 18 -275 17 -15 56 -17 354 -17 312 0 336 1
351 18 15 16 17 50 17 275 l0 257 -370 0 -370 0 0 -258z m290 151 c44 -44 48
-51 43 -85 -5 -33 -8 -36 -41 -41 -34 -5 -41 -1 -84 43 -27 27 -48 54 -48 60
0 6 13 25 29 41 16 16 35 29 41 29 6 0 33 -21 60 -47z m262 17 c16 -17 28 -34
26 -39 -2 -5 -24 -31 -49 -58 -42 -44 -50 -49 -82 -45 -32 4 -35 7 -40 40 -5
34 -1 41 43 85 27 26 54 47 60 47 6 0 25 -14 42 -30z m-164 -128 c3 -27 8 -31
35 -34 43 -4 43 -32 0 -36 -29 -3 -32 -7 -35 -40 -4 -51 -32 -51 -36 1 -3 35
-5 37 -38 37 -28 0 -35 4 -32 18 2 11 14 18 36 20 28 3 32 7 32 31 0 52 33 55
38 3z m-77 -102 c12 0 18 -11 21 -36 4 -32 -1 -41 -41 -80 -24 -24 -51 -44
-60 -44 -16 0 -71 48 -71 62 0 5 21 31 47 59 35 38 52 49 67 45 12 -3 28 -6
37 -6z m223 -40 c25 -27 46 -53 46 -58 0 -4 -13 -21 -29 -36 -37 -36 -64 -31
-112 21 -30 33 -35 44 -31 75 4 37 5 38 68 47 6 0 32 -21 58 -49z"/>
</g>
</svg>
